<svg width="1890" height="304" viewBox="0 0 1890 304" fill="none" xmlns="http://www.w3.org/2000/svg">
<rect width="1889.41" height="303.923" fill="black" fill-opacity="0"/>
<rect width="288" height="281" fill="black" fill-opacity="0"/>
<path d="M7.25014 90.1615C0.0777707 101.906 -1.64302 123.674 1.5126 134.559L17.2915 115.653L7.25014 90.1615Z" fill="white" fill-opacity="0.9"/>
<path d="M169.906 10.2454C163.502 1.93887 135.195 -2.93057 123.433 1.93881L135.482 17.9793L158.718 20.2708L169.906 10.2454Z" fill="white" fill-opacity="0.9"/>
<path d="M284.413 138.162C290.791 129.836 288.175 101.275 280.42 91.1913L266.007 113.075L284.413 138.162Z" fill="white" fill-opacity="0.9"/>
<path d="M213.265 278.734C223.595 280.599 247.851 265.235 253.295 253.742C253.536 250.36 253.573 247.105 253.423 243.976L228.428 247.699L213.265 278.734Z" fill="white" fill-opacity="0.9"/>
<path d="M28.9894 241.775C31.0658 252.915 42.3947 271.593 54.0857 278.87L59.7482 260.302L45.4047 240.252L28.9894 241.775Z" fill="white" fill-opacity="0.9"/>
<path d="M280.42 91.1914L218.674 99.0402L266.007 113.075L280.42 91.1914Z" fill="white" fill-opacity="0.8"/>
<path d="M70.9358 86.4371C40.8149 78.7036 14.4224 78.4172 7.24999 90.1616L17.2913 115.653L70.9358 86.4371Z" fill="white" fill-opacity="0.8"/>
<path d="M1.51245 134.559C31.3812 180.702 94.0893 159.794 103.639 158.618L39.954 148.02L17.2913 115.653L1.51245 134.559Z" fill="white" fill-opacity="0.8"/>
<path d="M123.433 1.93896C76.0996 47.1957 117.409 108.206 128.31 114.221L119.13 35.4519L135.482 17.9795L123.433 1.93896Z" fill="white" fill-opacity="0.8"/>
<path d="M169.906 10.2455L158.718 20.2709L164.742 63.5224C162.639 77.0801 159.062 105.971 161.587 113.075C162.047 112.157 162.886 110.759 163.978 108.94L163.98 108.937L163.98 108.936C173.111 93.7247 199.882 49.1291 169.906 10.2455Z" fill="white" fill-opacity="0.8"/>
<path d="M280.42 91.1914C224.388 57.2536 176.059 112.885 173.061 124.956C171.793 130.063 171.65 136.196 172.622 141.719L218.674 99.0402L280.42 91.1914Z" fill="white" fill-opacity="0.8"/>
<path d="M284.412 138.162L235.312 153.463L182.782 156.753C183.79 156.959 185.361 157.407 187.406 157.99C204.485 162.86 254.555 177.137 284.412 138.162Z" fill="white" fill-opacity="0.8"/>
<path d="M174.193 173.787C166.445 175.607 157.784 180.778 153.217 186.689L204.617 195.568L253.423 243.976C250.688 186.71 185.689 171.087 174.193 173.787Z" fill="white" fill-opacity="0.8"/>
<path d="M213.264 278.734L150.298 196.94C150.575 197.93 150.893 199.53 151.307 201.612C154.766 219.008 164.905 270.005 213.264 278.734Z" fill="white" fill-opacity="0.8"/>
<path d="M112.662 253.639C127.117 233.881 132.324 209.147 132.95 201.46L82.9845 258.011L59.748 260.302L54.0855 278.87C65.7765 286.147 89.2286 274.056 112.662 253.639Z" fill="white" fill-opacity="0.8"/>
<path d="M68.3541 205.021L109.414 174.481C108.349 174.862 106.503 175.328 104.065 175.943C85.7825 180.559 34.2231 193.578 28.9892 241.775L45.4045 240.252L68.3541 205.021Z" fill="white" fill-opacity="0.8"/>
<path d="M132.95 201.46C129.246 189.586 118.476 171.249 109.415 174.481L68.3543 205.021L45.4047 240.252L59.7482 260.302L82.9847 258.011L132.95 201.46Z" fill="white"/>
<path d="M103.639 158.618C113.189 157.443 114.564 136.229 112.532 123.96C108.516 117.372 92.7382 97.6081 70.936 86.4372L17.2915 115.653L39.9542 148.02L103.639 158.618Z" fill="white"/>
<path d="M128.31 114.221C139.211 120.236 157.284 121.668 161.587 113.075C159.063 105.971 162.639 77.0801 164.743 63.5225L158.718 20.271L135.482 17.9795L119.13 35.452L128.31 114.221Z" fill="white"/>
<path d="M172.623 141.719C173.948 149.248 177.344 155.642 182.782 156.753L235.312 153.463L284.413 138.162L266.008 113.075L218.674 99.0402L172.623 141.719Z" fill="white"/>
<path d="M153.217 186.689C150.638 190.027 149.365 193.601 150.299 196.94L213.265 278.734L228.428 247.699L253.423 243.976L204.617 195.568L153.217 186.689Z" fill="white"/>
<path d="M397.037 156.367V123.595C402.977 128.579 409.429 132.334 416.393 134.86C423.357 137.318 430.389 138.547 437.49 138.547C441.655 138.547 445.273 138.172 448.346 137.421C451.487 136.67 454.081 135.646 456.129 134.348C458.246 132.983 459.816 131.412 460.84 129.637C461.865 127.794 462.377 125.814 462.377 123.697C462.377 120.83 461.557 118.269 459.919 116.016C458.28 113.763 456.027 111.681 453.159 109.769C450.36 107.857 447.015 106.014 443.123 104.239C439.231 102.463 435.032 100.654 430.526 98.8107C419.056 94.0314 410.487 88.1938 404.82 81.298C399.221 74.4021 396.422 66.0724 396.422 56.309C396.422 48.6621 397.958 42.1076 401.031 36.6455C404.103 31.1152 408.268 26.5748 413.525 23.0245C418.851 19.4741 424.996 16.8796 431.96 15.241C438.924 13.5341 446.298 12.6807 454.081 12.6807C461.728 12.6807 468.487 13.1586 474.359 14.1145C480.299 15.002 485.761 16.4017 490.745 18.3134V48.9352C488.287 47.2283 485.59 45.7262 482.655 44.429C479.787 43.1317 476.817 42.0734 473.745 41.2541C470.672 40.3665 467.6 39.7179 464.527 39.3083C461.523 38.8986 458.656 38.6938 455.925 38.6938C452.169 38.6938 448.756 39.0693 445.683 39.8203C442.611 40.5031 440.016 41.4931 437.9 42.7903C435.783 44.0876 434.145 45.6579 432.984 47.5014C431.823 49.2765 431.243 51.2907 431.243 53.5438C431.243 56.0017 431.891 58.2207 433.189 60.2007C434.486 62.1124 436.329 63.9559 438.719 65.731C441.109 67.4379 444.01 69.1448 447.424 70.8517C450.838 72.4904 454.696 74.1973 458.997 75.9724C464.869 78.4304 470.126 81.059 474.769 83.8583C479.48 86.5893 483.508 89.6959 486.854 93.178C490.199 96.66 492.759 100.654 494.535 105.16C496.31 109.598 497.197 114.787 497.197 120.727C497.197 128.92 495.627 135.816 492.486 141.415C489.414 146.945 485.215 151.451 479.889 154.934C474.564 158.347 468.351 160.805 461.25 162.307C454.218 163.809 446.776 164.56 438.924 164.56C430.867 164.56 423.186 163.878 415.881 162.512C408.643 161.147 402.362 159.098 397.037 156.367Z" fill="white"/>
<path d="M641.089 98.4011C641.089 142.507 620.538 164.56 579.436 164.56C539.563 164.56 519.626 143.019 519.626 99.9373V15.1386H552.808V100.347C552.808 124.107 562.094 135.987 580.665 135.987C598.894 135.987 608.009 124.517 608.009 101.576V15.1386H641.089V98.4011Z" fill="white"/>
<path d="M796.348 162H758.353L735.514 124.209C733.807 121.342 732.169 118.781 730.599 116.528C729.028 114.275 727.424 112.363 725.785 110.793C724.215 109.155 722.542 107.926 720.767 107.106C719.06 106.219 717.182 105.775 715.134 105.775H706.224V162H673.144V15.1386H725.58C761.22 15.1386 779.04 28.4524 779.04 55.08C779.04 60.2007 778.255 64.9459 776.685 69.3155C775.114 73.6169 772.895 77.5086 770.028 80.9907C767.16 84.4728 763.678 87.4769 759.582 90.0031C755.553 92.5293 751.047 94.5093 746.063 95.9431V96.3528C748.248 97.0355 750.364 98.1621 752.413 99.7324C754.461 101.235 756.441 103.01 758.353 105.058C760.264 107.106 762.074 109.325 763.781 111.715C765.556 114.036 767.16 116.323 768.594 118.577L796.348 162ZM706.224 39.9228V80.7859H720.562C727.663 80.7859 733.364 78.7376 737.665 74.641C742.035 70.4762 744.22 65.3214 744.22 59.1766C744.22 46.3407 736.539 39.9228 721.176 39.9228H706.224Z" fill="white"/>
<path d="M932.456 15.1386L881.864 162H844.38L794.402 15.1386H830.042L860.664 117.348C862.303 122.878 863.293 127.76 863.634 131.993H864.249C864.727 127.418 865.785 122.4 867.423 116.938L897.84 15.1386H932.456Z" fill="white"/>
<path d="M1038.15 162H950.071V15.1386H1034.77V42.0734H983.151V74.7435H1031.18V101.576H983.151V135.168H1038.15V162Z" fill="white"/>
<path d="M1172.41 15.1386L1124.58 109.769V162H1091.5V110.383L1044.91 15.1386H1082.7L1106.35 69.93C1106.76 70.9541 1107.89 74.9483 1109.73 81.9124H1110.14C1111.03 76.9966 1112.09 73.139 1113.32 70.3397L1137.39 15.1386H1172.41Z" fill="white"/>
<path d="M1184.7 156.06V135.782C1187.02 137.83 1189.79 139.674 1193 141.312C1196.27 142.951 1199.69 144.351 1203.24 145.511C1206.86 146.604 1210.48 147.457 1214.09 148.072C1217.71 148.686 1221.06 148.993 1224.13 148.993C1234.71 148.993 1242.6 147.048 1247.79 143.156C1253.05 139.196 1255.67 133.529 1255.67 126.155C1255.67 122.195 1254.79 118.747 1253.01 115.811C1251.3 112.876 1248.91 110.213 1245.84 107.823C1242.77 105.365 1239.12 103.044 1234.88 100.859C1230.72 98.6059 1226.21 96.2504 1221.37 93.7924C1216.24 91.198 1211.47 88.5693 1207.03 85.9066C1202.59 83.2438 1198.73 80.3079 1195.45 77.099C1192.18 73.89 1189.58 70.2714 1187.67 66.2431C1185.83 62.1466 1184.91 57.3672 1184.91 51.9052C1184.91 45.2141 1186.37 39.4107 1189.31 34.4948C1192.25 29.5107 1196.1 25.4141 1200.88 22.2052C1205.66 18.9962 1211.09 16.6065 1217.17 15.0362C1223.31 13.4658 1229.56 12.6807 1235.91 12.6807C1250.38 12.6807 1260.93 14.4217 1267.55 17.9038V37.26C1258.88 31.2517 1247.75 28.2476 1234.17 28.2476C1230.41 28.2476 1226.66 28.6572 1222.9 29.4765C1219.15 30.2276 1215.8 31.4907 1212.87 33.2658C1209.93 35.041 1207.54 37.3283 1205.7 40.1276C1203.85 42.9269 1202.93 46.3407 1202.93 50.369C1202.93 54.1241 1203.61 57.3672 1204.98 60.0983C1206.41 62.8293 1208.5 65.3214 1211.23 67.5745C1213.96 69.8276 1217.27 72.0124 1221.16 74.129C1225.12 76.2455 1229.66 78.5669 1234.78 81.0931C1240.04 83.6876 1245.02 86.4186 1249.73 89.2862C1254.45 92.1538 1258.58 95.3286 1262.13 98.8107C1265.68 102.293 1268.48 106.15 1270.52 110.383C1272.64 114.617 1273.7 119.464 1273.7 124.926C1273.7 132.163 1272.27 138.308 1269.4 143.361C1266.6 148.345 1262.78 152.407 1257.93 155.548C1253.15 158.689 1247.62 160.942 1241.34 162.307C1235.05 163.741 1228.43 164.458 1221.47 164.458C1219.15 164.458 1216.28 164.253 1212.87 163.844C1209.45 163.502 1205.97 162.956 1202.42 162.205C1198.87 161.522 1195.49 160.669 1192.28 159.645C1189.14 158.552 1186.61 157.357 1184.7 156.06Z" fill="white"/>
<path d="M1389.84 30.7055H1347.44V162H1330.23V30.7055H1287.93V15.1386H1389.84V30.7055Z" fill="white"/>
<path d="M1520.41 102.6C1520.41 143.839 1501.81 164.458 1464.6 164.458C1428.96 164.458 1411.14 144.624 1411.14 104.956V15.1386H1428.34V103.829C1428.34 133.939 1441.04 148.993 1466.44 148.993C1490.95 148.993 1503.21 134.451 1503.21 105.365V15.1386H1520.41V102.6Z" fill="white"/>
<path d="M1557.18 162V15.1386H1597.74C1649.49 15.1386 1675.37 39.001 1675.37 86.7259C1675.37 109.393 1668.16 127.623 1653.76 141.415C1639.42 155.138 1620.2 162 1596.1 162H1557.18ZM1574.39 30.7055V146.433H1596.3C1615.56 146.433 1630.54 141.278 1641.26 130.969C1651.98 120.659 1657.34 106.048 1657.34 87.1355C1657.34 49.5155 1637.34 30.7055 1597.33 30.7055H1574.39Z" fill="white"/>
<path d="M1721.45 162H1704.25V15.1386H1721.45V162Z" fill="white"/>
<path d="M1819.36 164.458C1798.54 164.458 1781.84 157.596 1769.28 143.873C1756.79 130.149 1750.54 112.295 1750.54 90.3104C1750.54 66.6869 1756.92 47.8428 1769.69 33.7779C1782.46 19.7131 1799.83 12.6807 1821.82 12.6807C1842.1 12.6807 1858.41 19.5083 1870.77 33.1634C1883.2 46.8186 1889.41 64.6728 1889.41 86.7259C1889.41 110.691 1883.06 129.637 1870.36 143.566C1857.66 157.494 1840.66 164.458 1819.36 164.458ZM1820.59 28.2476C1805.16 28.2476 1792.63 33.8121 1783 44.941C1773.38 56.07 1768.56 70.681 1768.56 88.7742C1768.56 106.867 1773.24 121.444 1782.59 132.505C1792.02 143.497 1804.27 148.993 1819.36 148.993C1835.47 148.993 1848.17 143.736 1857.46 133.222C1866.74 122.707 1871.39 107.994 1871.39 89.0814C1871.39 69.691 1866.88 54.7045 1857.87 44.1217C1848.86 33.539 1836.43 28.2476 1820.59 28.2476Z" fill="white"/>
<path d="M420.919 278.471C418.873 279.6 416.174 280.164 412.823 280.164C403.333 280.164 398.589 274.873 398.589 264.289V232.222H389.275V224.814H398.589V211.585L407.267 208.781V224.814H420.919V232.222H407.267V262.755C407.267 266.388 407.884 268.981 409.119 270.534C410.354 272.086 412.4 272.862 415.257 272.862C417.444 272.862 419.332 272.262 420.919 271.063V278.471Z" fill="white"/>
<path d="M477.486 279H468.808V247.78C468.808 236.491 464.61 230.847 456.214 230.847C451.981 230.847 448.418 232.487 445.525 235.768C442.632 239.013 441.186 243.194 441.186 248.309V279H432.508V198.78H441.186V233.81H441.398C445.56 226.966 451.487 223.544 459.177 223.544C471.383 223.544 477.486 230.899 477.486 245.61V279Z" fill="white"/>
<path d="M537.44 254.077H499.182C499.323 260.109 500.946 264.766 504.05 268.046C507.154 271.327 511.423 272.968 516.856 272.968C522.959 272.968 528.568 270.957 533.683 266.935V275.084C528.92 278.541 522.624 280.27 514.792 280.27C507.137 280.27 501.122 277.818 496.748 272.915C492.373 267.976 490.186 261.044 490.186 252.119C490.186 243.688 492.567 236.826 497.33 231.534C502.127 226.208 508.072 223.544 515.162 223.544C522.253 223.544 527.739 225.837 531.619 230.423C535.5 235.009 537.44 241.377 537.44 249.526V254.077ZM528.55 246.721C528.515 241.712 527.298 237.814 524.899 235.027C522.535 232.24 519.237 230.847 515.004 230.847C510.911 230.847 507.437 232.311 504.579 235.239C501.722 238.167 499.958 241.994 499.288 246.721H528.55Z" fill="white"/>
<path d="M589.245 271.169H589.033V303.923H580.355V224.814H589.033V234.339H589.245C593.513 227.142 599.757 223.544 607.977 223.544C614.962 223.544 620.412 225.978 624.328 230.847C628.244 235.68 630.202 242.171 630.202 250.32C630.202 259.386 627.997 266.653 623.587 272.121C619.177 277.554 613.145 280.27 605.49 280.27C598.47 280.27 593.055 277.236 589.245 271.169ZM589.033 249.314V256.881C589.033 261.361 590.479 265.171 593.372 268.311C596.3 271.415 600.004 272.968 604.484 272.968C609.741 272.968 613.851 270.957 616.814 266.935C619.812 262.914 621.312 257.322 621.312 250.161C621.312 244.128 619.918 239.401 617.131 235.979C614.344 232.558 610.57 230.847 605.807 230.847C600.763 230.847 596.706 232.61 593.637 236.138C590.568 239.631 589.033 244.023 589.033 249.314Z" fill="white"/>
<path d="M666.714 280.27C658.706 280.27 652.303 277.748 647.505 272.703C642.743 267.623 640.361 260.903 640.361 252.542C640.361 243.441 642.848 236.332 647.823 231.217C652.797 226.102 659.517 223.544 667.984 223.544C676.062 223.544 682.359 226.031 686.875 231.005C691.425 235.979 693.701 242.876 693.701 251.695C693.701 260.338 691.249 267.27 686.345 272.491C681.477 277.677 674.933 280.27 666.714 280.27ZM667.349 230.847C661.775 230.847 657.365 232.752 654.12 236.561C650.874 240.336 649.251 245.557 649.251 252.225C649.251 258.645 650.892 263.707 654.172 267.411C657.453 271.116 661.845 272.968 667.349 272.968C672.958 272.968 677.261 271.151 680.26 267.517C683.294 263.884 684.811 258.716 684.811 252.013C684.811 245.24 683.294 240.019 680.26 236.35C677.261 232.681 672.958 230.847 667.349 230.847Z" fill="white"/>
<path d="M775.826 224.814L759.581 279H750.585L739.42 240.213C738.997 238.731 738.714 237.055 738.573 235.186H738.362C738.256 236.456 737.885 238.096 737.25 240.107L725.133 279H716.454L700.051 224.814H709.152L720.37 265.559C720.723 266.794 720.97 268.417 721.111 270.428H721.534C721.64 268.875 721.958 267.217 722.487 265.454L734.975 224.814H742.912L754.131 265.665C754.483 266.971 754.748 268.593 754.924 270.534H755.348C755.418 269.158 755.718 267.535 756.247 265.665L767.254 224.814H775.826Z" fill="white"/>
<path d="M829.43 254.077H791.172C791.313 260.109 792.936 264.766 796.04 268.046C799.144 271.327 803.413 272.968 808.846 272.968C814.949 272.968 820.558 270.957 825.673 266.935V275.084C820.911 278.541 814.614 280.27 806.782 280.27C799.127 280.27 793.112 277.818 788.738 272.915C784.363 267.976 782.176 261.044 782.176 252.119C782.176 243.688 784.557 236.826 789.32 231.534C794.117 226.208 800.062 223.544 807.152 223.544C814.243 223.544 819.729 225.837 823.609 230.423C827.49 235.009 829.43 241.377 829.43 249.526V254.077ZM820.54 246.721C820.505 241.712 819.288 237.814 816.889 235.027C814.525 232.24 811.227 230.847 806.994 230.847C802.901 230.847 799.427 232.311 796.569 235.239C793.712 238.167 791.948 241.994 791.278 246.721H820.54Z" fill="white"/>
<path d="M870.863 233.598C869.346 232.434 867.159 231.852 864.302 231.852C860.598 231.852 857.493 233.598 854.988 237.091C852.519 240.583 851.284 245.346 851.284 251.378V279H842.606V224.814H851.284V235.979H851.496C852.731 232.169 854.618 229.206 857.158 227.09C859.698 224.938 862.538 223.862 865.677 223.862C867.935 223.862 869.664 224.109 870.863 224.602V233.598Z" fill="white"/>
<path d="M935.156 278.471C933.11 279.6 930.411 280.164 927.06 280.164C917.57 280.164 912.825 274.873 912.825 264.289V232.222H903.512V224.814H912.825V211.585L921.504 208.781V224.814H935.156V232.222H921.504V262.755C921.504 266.388 922.121 268.981 923.356 270.534C924.59 272.086 926.636 272.862 929.494 272.862C931.681 272.862 933.569 272.262 935.156 271.063V278.471Z" fill="white"/>
<path d="M969.393 280.27C961.385 280.27 954.982 277.748 950.184 272.703C945.422 267.623 943.041 260.903 943.041 252.542C943.041 243.441 945.528 236.332 950.502 231.217C955.476 226.102 962.196 223.544 970.663 223.544C978.741 223.544 985.038 226.031 989.554 231.005C994.104 235.979 996.38 242.876 996.38 251.695C996.38 260.338 993.928 267.27 989.024 272.491C984.156 277.677 977.612 280.27 969.393 280.27ZM970.028 230.847C964.454 230.847 960.044 232.752 956.799 236.561C953.553 240.336 951.93 245.557 951.93 252.225C951.93 258.645 953.571 263.707 956.852 267.411C960.132 271.116 964.524 272.968 970.028 272.968C975.637 272.968 979.94 271.151 982.939 267.517C985.973 263.884 987.49 258.716 987.49 252.013C987.49 245.24 985.973 240.019 982.939 236.35C979.94 232.681 975.637 230.847 970.028 230.847Z" fill="white"/>
<path d="M1036.7 277.042V267.729C1041.43 271.221 1046.63 272.968 1052.31 272.968C1059.93 272.968 1063.74 270.428 1063.74 265.348C1063.74 263.901 1063.41 262.684 1062.74 261.697C1062.1 260.674 1061.22 259.774 1060.09 258.998C1059 258.222 1057.69 257.534 1056.17 256.934C1054.69 256.299 1053.09 255.647 1051.36 254.976C1048.96 254.024 1046.84 253.071 1045.01 252.119C1043.21 251.131 1041.69 250.037 1040.46 248.838C1039.26 247.603 1038.34 246.21 1037.71 244.658C1037.11 243.105 1036.81 241.289 1036.81 239.207C1036.81 236.667 1037.39 234.427 1038.55 232.487C1039.72 230.511 1041.27 228.871 1043.21 227.566C1045.15 226.225 1047.36 225.22 1049.82 224.55C1052.33 223.879 1054.9 223.544 1057.55 223.544C1062.24 223.544 1066.44 224.356 1070.14 225.978V234.762C1066.16 232.152 1061.57 230.847 1056.39 230.847C1054.76 230.847 1053.3 231.041 1051.99 231.429C1050.69 231.781 1049.56 232.293 1048.61 232.963C1047.69 233.633 1046.97 234.445 1046.44 235.397C1045.94 236.315 1045.7 237.338 1045.7 238.466C1045.7 239.878 1045.94 241.059 1046.44 242.012C1046.97 242.964 1047.73 243.811 1048.71 244.552C1049.7 245.293 1050.9 245.963 1052.31 246.563C1053.72 247.162 1055.33 247.815 1057.13 248.52C1059.53 249.438 1061.68 250.39 1063.58 251.378C1065.49 252.33 1067.11 253.424 1068.45 254.659C1069.79 255.858 1070.81 257.252 1071.52 258.839C1072.26 260.427 1072.63 262.314 1072.63 264.501C1072.63 267.182 1072.03 269.51 1070.83 271.486C1069.67 273.462 1068.1 275.102 1066.12 276.407C1064.15 277.712 1061.87 278.683 1059.3 279.318C1056.72 279.953 1054.02 280.27 1051.2 280.27C1045.63 280.27 1040.79 279.194 1036.7 277.042Z" fill="white"/>
<path d="M1129.57 254.077H1091.31C1091.45 260.109 1093.07 264.766 1096.18 268.046C1099.28 271.327 1103.55 272.968 1108.98 272.968C1115.09 272.968 1120.7 270.957 1125.81 266.935V275.084C1121.05 278.541 1114.75 280.27 1106.92 280.27C1099.27 280.27 1093.25 277.818 1088.88 272.915C1084.5 267.976 1082.32 261.044 1082.32 252.119C1082.32 243.688 1084.7 236.826 1089.46 231.534C1094.26 226.208 1100.2 223.544 1107.29 223.544C1114.38 223.544 1119.87 225.837 1123.75 230.423C1127.63 235.009 1129.57 241.377 1129.57 249.526V254.077ZM1120.68 246.721C1120.64 241.712 1119.43 237.814 1117.03 235.027C1114.66 232.24 1111.37 230.847 1107.13 230.847C1103.04 230.847 1099.57 232.311 1096.71 235.239C1093.85 238.167 1092.09 241.994 1091.42 246.721H1120.68Z" fill="white"/>
<path d="M1171 233.598C1169.49 232.434 1167.3 231.852 1164.44 231.852C1160.74 231.852 1157.63 233.598 1155.13 237.091C1152.66 240.583 1151.42 245.346 1151.42 251.378V279H1142.75V224.814H1151.42V235.979H1151.64C1152.87 232.169 1154.76 229.206 1157.3 227.09C1159.84 224.938 1162.68 223.862 1165.82 223.862C1168.07 223.862 1169.8 224.109 1171 224.602V233.598Z" fill="white"/>
<path d="M1223.02 224.814L1201.43 279H1192.91L1172.38 224.814H1181.9L1195.66 264.184C1196.68 267.076 1197.32 269.599 1197.57 271.751H1197.78C1198.13 269.034 1198.69 266.582 1199.47 264.395L1213.86 224.814H1223.02Z" fill="white"/>
<path d="M1275.93 254.077H1237.68C1237.82 260.109 1239.44 264.766 1242.54 268.046C1245.65 271.327 1249.92 272.968 1255.35 272.968C1261.45 272.968 1267.06 270.957 1272.18 266.935V275.084C1267.42 278.541 1261.12 280.27 1253.29 280.27C1245.63 280.27 1239.62 277.818 1235.24 272.915C1230.87 267.976 1228.68 261.044 1228.68 252.119C1228.68 243.688 1231.06 236.826 1235.82 231.534C1240.62 226.208 1246.57 223.544 1253.66 223.544C1260.75 223.544 1266.23 225.837 1270.11 230.423C1273.99 235.009 1275.93 241.377 1275.93 249.526V254.077ZM1267.04 246.721C1267.01 241.712 1265.79 237.814 1263.39 235.027C1261.03 232.24 1257.73 230.847 1253.5 230.847C1249.41 230.847 1245.93 232.311 1243.07 235.239C1240.22 238.167 1238.45 241.994 1237.78 246.721H1267.04Z" fill="white"/>
<path d="M1292.13 280.164C1290.5 280.164 1289.11 279.582 1287.95 278.418C1286.82 277.254 1286.25 275.86 1286.25 274.238C1286.25 272.615 1286.82 271.221 1287.95 270.057C1289.11 268.858 1290.5 268.258 1292.13 268.258C1293.78 268.258 1295.2 268.858 1296.36 270.057C1297.52 271.221 1298.11 272.615 1298.11 274.238C1298.11 275.86 1297.52 277.254 1296.36 278.418C1295.2 279.582 1293.78 280.164 1292.13 280.164Z" fill="white"/>
</svg>
